<svg xmlns="http://www.w3.org/2000/svg" xmlns:xlink="http://www.w3.org/1999/xlink" width="800" zoomAndPan="magnify" viewBox="0 0 600 599.999999" height="800" preserveAspectRatio="xMidYMid meet" version="1.0"><defs><clipPath id="8ac3a3c48c"><path d="M 110.144531 75.09375 L 489.644531 75.09375 L 489.644531 525.09375 L 110.144531 525.09375 Z M 110.144531 75.09375 " clip-rule="nonzero"/></clipPath></defs><g clip-path="url(#8ac3a3c48c)"><path fill="#00b0af" d="M 137.117188 138.777344 L 206.066406 75.09375 L 359.824219 100.566406 L 376.445312 171.882812 L 489.640625 230.472656 L 444.238281 474 L 275.898438 525.09375 L 110.144531 486.882812 Z M 137.117188 138.777344 " fill-opacity="1" fill-rule="nonzero"/></g><path fill="#059b97" d="M 484.605469 257.472656 L 485.417969 253.140625 L 473.78125 239.847656 L 486.265625 228.738281 L 483.359375 227.222656 L 471.761719 237.558594 L 449.824219 212.488281 L 451.675781 210.839844 L 448.769531 209.324219 L 447.808594 210.183594 L 445.625 207.691406 L 437.238281 203.34375 L 445.226562 212.472656 L 417.085938 237.53125 L 395.132812 212.472656 L 417.097656 192.929688 L 414.179688 191.414062 L 393.128906 210.171875 L 371.179688 185.101562 L 382.507812 175.007812 L 379.605469 173.515625 L 369.175781 182.8125 L 347.238281 157.742188 L 368.699219 138.621094 L 367.902344 135.253906 L 345.207031 155.453125 L 323.269531 130.394531 L 351.410156 105.324219 L 364.371094 120.132812 L 362.703125 112.972656 L 353.992188 103.035156 L 357.203125 100.167969 L 353.3125 99.511719 L 351.964844 100.71875 L 350.5 99.046875 L 345.128906 98.175781 L 349.394531 103.035156 L 321.238281 128.09375 L 299.300781 103.035156 L 311.09375 92.515625 L 307.226562 91.886719 L 297.285156 100.71875 L 286.546875 88.453125 L 281.179688 87.578125 L 294.703125 103.035156 L 266.5625 128.09375 L 244.609375 103.035156 L 264.980469 84.890625 L 261.117188 84.238281 L 242.605469 100.71875 L 222.597656 77.835938 L 215.03125 76.585938 L 187.941406 100.707031 L 183.652344 95.808594 L 181.097656 98.148438 L 185.359375 103.007812 L 157.207031 128.066406 L 153.402344 123.722656 L 150.875 126.085938 L 154.636719 130.382812 L 136.527344 146.492188 L 136.179688 150.902344 L 156.640625 132.667969 L 178.589844 157.726562 L 150.4375 182.800781 L 135.0625 165.238281 L 134.691406 170.070312 L 147.855469 185.089844 L 132.46875 198.792969 L 132.121094 203.203125 L 149.859375 187.402344 L 171.808594 212.460938 L 143.65625 237.53125 L 130.617188 222.632812 L 130.246094 227.464844 L 141.074219 239.832031 L 128.410156 251.109375 L 128.0625 255.507812 L 143.078125 242.136719 L 165.027344 267.207031 L 136.871094 292.265625 L 126.160156 280.023438 L 125.789062 284.859375 L 134.292969 294.578125 L 124.351562 303.4375 L 124.003906 307.835938 L 136.296875 296.882812 L 158.246094 321.941406 L 130.089844 347.011719 L 121.714844 337.417969 L 121.332031 342.253906 L 127.507812 349.300781 L 120.289062 355.726562 L 119.945312 360.136719 L 129.511719 351.613281 L 151.464844 376.671875 L 123.308594 401.742188 L 117.257812 394.828125 L 116.886719 399.648438 L 120.726562 404.046875 L 116.230469 408.042969 L 115.886719 412.441406 L 122.730469 406.332031 L 144.683594 431.40625 L 116.527344 456.464844 L 112.789062 452.195312 L 112.417969 457.03125 L 113.945312 458.765625 L 112.171875 460.347656 L 111.828125 464.742188 L 115.949219 461.066406 L 137.902344 486.125 L 131.542969 491.78125 L 135.214844 492.617188 L 139.917969 488.441406 L 145.695312 495.046875 L 151.464844 496.386719 L 142.511719 486.136719 L 170.652344 461.078125 L 192.589844 486.136719 L 175.007812 501.8125 L 178.65625 502.660156 L 194.609375 488.453125 L 214.207031 510.847656 L 222.09375 512.675781 L 249.285156 488.464844 L 271.238281 513.523438 L 261.886719 521.855469 L 265.558594 522.691406 L 273.253906 515.839844 L 280.203125 523.785156 L 283.835938 522.679688 L 275.847656 513.535156 L 303.992188 488.476562 L 323.421875 510.667969 L 327.058594 509.5625 L 306.570312 486.164062 L 334.726562 461.105469 L 356.664062 486.164062 L 332.144531 508.019531 L 339.105469 505.898438 L 358.695312 488.464844 L 366.644531 497.542969 L 370.28125 496.4375 L 361.277344 486.152344 L 389.429688 461.09375 L 409.851562 484.429688 L 413.476562 483.324219 L 392.011719 458.804688 L 420.15625 433.734375 L 442.105469 458.804688 L 415.105469 482.832031 L 422.082031 480.710938 L 444.121094 461.09375 L 446.214844 463.484375 L 447.023438 459.152344 L 446.714844 458.789062 L 447.179688 458.378906 L 448.105469 453.441406 L 444.699219 456.464844 L 422.761719 431.40625 L 450.902344 406.332031 L 455.835938 411.964844 L 456.644531 407.632812 L 453.5 404.03125 L 458.070312 399.945312 L 458.984375 395.03125 L 451.46875 401.71875 L 429.53125 376.660156 L 457.671875 351.601562 L 465.445312 360.460938 L 466.238281 356.125 L 460.28125 349.285156 L 468.976562 341.546875 L 469.886719 336.636719 L 458.25 347 L 436.3125 321.925781 L 464.453125 296.867188 L 475.039062 308.953125 L 475.847656 304.621094 L 467.050781 294.566406 L 479.855469 283.164062 L 480.765625 278.25 L 465.019531 292.265625 L 443.082031 267.207031 L 471.222656 242.136719 L 484.644531 257.460938 Z M 438.445312 267.21875 L 410.300781 292.277344 L 388.351562 267.21875 L 416.507812 242.148438 Z M 248.257812 294.59375 L 276.402344 269.519531 L 298.351562 294.59375 L 270.195312 319.652344 Z M 267.628906 321.953125 L 239.484375 347.023438 L 217.535156 321.953125 L 245.691406 296.894531 Z M 300.355469 296.882812 L 322.304688 321.941406 L 294.152344 347.011719 L 272.214844 321.941406 Z M 302.949219 294.59375 L 331.09375 269.519531 L 353.042969 294.59375 L 324.886719 319.652344 Z M 300.933594 292.277344 L 278.996094 267.21875 L 307.136719 242.148438 L 329.089844 267.21875 Z M 276.980469 264.90625 L 255.039062 239.847656 L 283.183594 214.777344 L 305.132812 239.847656 Z M 274.398438 267.21875 L 246.253906 292.277344 L 224.304688 267.21875 L 252.457031 242.148438 Z M 222.300781 264.90625 L 200.351562 239.847656 L 228.503906 214.789062 L 250.441406 239.847656 Z M 243.660156 294.59375 L 215.519531 319.652344 L 193.566406 294.59375 L 221.722656 269.519531 Z M 236.890625 349.324219 L 208.75 374.398438 L 186.800781 349.324219 L 214.953125 324.265625 Z M 238.910156 351.625 L 260.847656 376.683594 L 232.703125 401.757812 L 210.753906 376.683594 Z M 241.488281 349.324219 L 269.632812 324.265625 L 291.582031 349.324219 L 263.429688 374.398438 Z M 293.585938 351.625 L 315.539062 376.683594 L 287.382812 401.742188 L 265.445312 376.683594 Z M 296.179688 349.324219 L 324.324219 324.265625 L 346.273438 349.324219 L 318.117188 374.398438 Z M 326.917969 321.953125 L 355.058594 296.894531 L 376.996094 321.953125 L 348.855469 347.023438 Z M 379.015625 324.253906 L 400.953125 349.3125 L 372.808594 374.382812 L 350.859375 349.3125 Z M 357.628906 294.59375 L 385.78125 269.519531 L 407.722656 294.59375 L 379.578125 319.652344 Z M 355.625 292.277344 L 333.6875 267.21875 L 361.828125 242.148438 L 383.765625 267.21875 Z M 331.667969 264.90625 L 309.730469 239.847656 L 337.875 214.789062 L 359.824219 239.847656 Z M 307.703125 237.53125 L 285.765625 212.472656 L 313.90625 187.414062 L 335.855469 212.472656 Z M 283.746094 210.183594 L 261.808594 185.113281 L 289.953125 160.054688 L 311.902344 185.113281 Z M 281.164062 212.472656 L 253.023438 237.546875 L 231.074219 212.472656 L 259.226562 187.414062 Z M 229.070312 210.183594 L 207.117188 185.113281 L 235.273438 160.054688 L 257.210938 185.113281 Z M 205.113281 182.8125 L 183.175781 157.742188 L 211.320312 132.683594 L 233.257812 157.742188 Z M 226.476562 212.472656 L 198.332031 237.53125 L 176.394531 212.472656 L 204.535156 187.414062 Z M 219.707031 267.21875 L 191.5625 292.277344 L 169.625 267.21875 L 197.769531 242.148438 Z M 212.9375 321.953125 L 184.796875 347.023438 L 162.855469 321.953125 L 191 296.894531 Z M 206.15625 376.699219 L 178.011719 401.757812 L 156.074219 376.699219 L 184.21875 351.640625 Z M 208.183594 379 L 230.121094 404.058594 L 201.980469 429.117188 L 180.03125 404.058594 Z M 232.140625 406.359375 L 254.078125 431.429688 L 225.933594 456.488281 L 203.984375 431.429688 Z M 234.722656 404.058594 L 262.863281 378.988281 L 284.8125 404.058594 L 256.660156 429.117188 Z M 286.816406 406.359375 L 308.769531 431.429688 L 280.613281 456.488281 L 258.675781 431.429688 Z M 289.398438 404.058594 L 317.542969 378.988281 L 339.492188 404.058594 L 311.335938 429.117188 Z M 320.136719 376.699219 L 348.277344 351.640625 L 370.214844 376.699219 L 342.074219 401.757812 Z M 372.230469 378.988281 L 394.171875 404.058594 L 366.027344 429.117188 L 344.078125 404.058594 Z M 374.8125 376.699219 L 402.96875 351.640625 L 424.90625 376.699219 L 396.765625 401.757812 Z M 381.582031 321.953125 L 409.738281 296.894531 L 431.675781 321.953125 L 403.535156 347.023438 Z M 414.488281 239.847656 L 386.347656 264.90625 L 364.398438 239.847656 L 392.550781 214.777344 Z M 390.535156 212.472656 L 362.394531 237.546875 L 340.457031 212.472656 L 368.597656 187.414062 Z M 366.59375 185.101562 L 338.4375 210.171875 L 316.5 185.101562 L 344.644531 160.042969 Z M 342.640625 157.726562 L 314.484375 182.800781 L 292.546875 157.726562 L 320.6875 132.667969 Z M 296.734375 105.296875 L 318.683594 130.367188 L 290.53125 155.425781 L 268.589844 130.367188 Z M 287.949219 157.726562 L 259.804688 182.800781 L 237.855469 157.726562 L 266.007812 132.667969 Z M 263.992188 130.382812 L 235.851562 155.441406 L 213.898438 130.382812 L 242.054688 105.308594 Z M 218.101562 77.925781 L 240.039062 102.996094 L 211.898438 128.054688 L 189.957031 102.996094 Z M 159.222656 130.382812 L 187.363281 105.308594 L 209.316406 130.382812 L 181.160156 155.441406 Z M 152.453125 185.101562 L 180.59375 160.042969 L 202.546875 185.101562 L 174.390625 210.171875 Z M 145.671875 239.847656 L 173.8125 214.777344 L 195.765625 239.847656 L 167.609375 264.90625 Z M 138.902344 294.59375 L 167.042969 269.519531 L 188.996094 294.59375 L 160.839844 319.652344 Z M 132.132812 349.324219 L 160.273438 324.265625 L 182.214844 349.324219 L 154.070312 374.398438 Z M 125.351562 404.058594 L 153.492188 378.988281 L 175.445312 404.058594 L 147.289062 429.117188 Z M 140.507812 483.875 L 118.570312 458.816406 L 146.710938 433.746094 L 168.648438 458.816406 Z M 149.304688 431.429688 L 177.449219 406.359375 L 199.386719 431.429688 L 171.246094 456.488281 Z M 173.25 458.804688 L 201.402344 433.734375 L 223.339844 458.804688 L 195.199219 483.863281 Z M 219.152344 511.25 L 197.203125 486.175781 L 225.359375 461.117188 L 247.296875 486.175781 Z M 227.9375 458.804688 L 256.082031 433.734375 L 278.03125 458.804688 L 249.878906 483.863281 Z M 273.832031 511.25 L 251.894531 486.175781 L 280.035156 461.117188 L 301.988281 486.175781 Z M 304.566406 483.875 L 282.628906 458.816406 L 310.773438 433.746094 L 332.722656 458.816406 Z M 313.367188 431.429688 L 341.507812 406.359375 L 363.445312 431.429688 L 335.304688 456.488281 Z M 359.257812 483.875 L 337.308594 458.816406 L 365.464844 433.746094 L 387.402344 458.816406 Z M 389.984375 456.503906 L 368.03125 431.445312 L 396.1875 406.371094 L 418.125 431.445312 Z M 448.863281 404.058594 L 420.707031 429.117188 L 398.769531 404.058594 L 426.910156 378.988281 Z M 455.628906 349.324219 L 427.476562 374.398438 L 405.539062 349.324219 L 433.679688 324.265625 Z M 462.398438 294.59375 L 434.246094 319.652344 L 412.304688 294.59375 L 440.449219 269.519531 Z M 441.027344 264.90625 L 419.089844 239.847656 L 447.230469 214.789062 L 469.179688 239.847656 Z M 441.027344 264.90625 " fill-opacity="1" fill-rule="nonzero"/><path fill="#008985" d="M 218.113281 466.8125 C 201.054688 466.8125 189.125 471.6875 180.519531 481.199219 L 177.960938 481.199219 L 220.269531 139.382812 L 195.300781 139.382812 L 195.621094 136.824219 L 316.230469 136.824219 L 305.917969 220.109375 C 302.796875 245.351562 296.9375 271.9375 291.339844 293.640625 L 300.417969 295.105469 C 303.628906 275.113281 315.28125 230.113281 370.960938 230.113281 C 426.640625 230.113281 449.773438 273.53125 440.433594 348.886719 C 429.121094 440.355469 379.875 483.886719 311.402344 483.886719 C 242.929688 483.886719 250.042969 466.8125 218.125 466.8125 Z M 301.511719 306.820312 L 280.40625 477.304688 C 284.09375 478.039062 287.703125 478.398438 291.363281 478.398438 C 312.3125 478.398438 320.855469 464.5 331.941406 374.988281 L 334.636719 353.15625 C 342.855469 286.699219 339.570312 269.007812 324.335938 269.007812 C 309.101562 269.007812 303.59375 289.976562 301.5 306.808594 Z M 301.511719 306.820312 " fill-opacity="1" fill-rule="nonzero"/><path fill="#262626" d="M 208.363281 457.042969 C 191.308594 457.042969 179.375 461.914062 170.769531 471.429688 L 168.214844 471.429688 L 210.507812 129.621094 L 185.539062 129.621094 L 185.859375 127.0625 L 306.46875 127.0625 L 296.15625 210.351562 C 293.035156 235.589844 287.175781 262.179688 281.578125 283.882812 L 290.65625 285.347656 C 293.867188 265.355469 305.519531 220.355469 361.199219 220.355469 C 416.878906 220.355469 440.011719 263.773438 430.671875 339.128906 C 419.359375 430.59375 370.113281 474.128906 301.640625 474.128906 C 233.167969 474.128906 240.28125 457.054688 208.363281 457.054688 Z M 291.75 297.0625 L 270.648438 467.546875 C 274.332031 468.28125 277.941406 468.640625 281.601562 468.640625 C 302.550781 468.640625 311.09375 454.742188 322.179688 365.230469 L 324.875 343.398438 C 333.09375 276.941406 329.808594 259.25 314.574219 259.25 C 299.339844 259.25 293.832031 280.21875 291.738281 297.046875 Z M 291.75 297.0625 " fill-opacity="1" fill-rule="nonzero"/></svg>