<svg xmlns="http://www.w3.org/2000/svg" xmlns:xlink="http://www.w3.org/1999/xlink" width="800" zoomAndPan="magnify" viewBox="0 0 600 599.999999" height="800" preserveAspectRatio="xMidYMid meet" version="1.0"><defs><clipPath id="f05673523b"><path d="M 136 125 L 478 125 L 478 482.75 L 136 482.75 Z M 136 125 " clip-rule="nonzero"/></clipPath><clipPath id="29fa748f2f"><path d="M 121.226562 117.5 L 462 117.5 L 462 475 L 121.226562 475 Z M 121.226562 117.5 " clip-rule="nonzero"/></clipPath></defs><g clip-path="url(#f05673523b)"><path fill="#793939" d="M 331.773438 125.679688 L 187.347656 133.34375 L 191.179688 237.714844 L 136.699219 337.476562 L 169.703125 398.886719 L 173.535156 473.023438 L 315.5 482.75 C 315.5 482.75 478.941406 464.902344 477.425781 460.296875 C 475.910156 455.691406 418.34375 329.839844 419.886719 322.921875 C 421.429688 316 459.007812 230.046875 459.78125 226.988281 C 460.554688 223.929688 435.988281 140.265625 435.988281 140.265625 L 331.800781 125.679688 Z M 331.773438 125.679688 " fill-opacity="1" fill-rule="nonzero"/></g><g clip-path="url(#29fa748f2f)"><path fill="#e2c5c9" d="M 316.328125 117.5 L 171.90625 125.164062 L 175.738281 229.535156 L 121.257812 329.296875 L 154.261719 390.707031 L 158.09375 464.84375 L 300.058594 474.570312 C 300.058594 474.570312 463.5 456.722656 461.984375 452.117188 C 460.46875 447.511719 402.898438 321.660156 404.441406 314.738281 C 405.988281 307.816406 443.566406 221.867188 444.339844 218.808594 C 445.109375 215.746094 420.542969 132.085938 420.542969 132.085938 L 316.359375 117.5 Z M 316.328125 117.5 " fill-opacity="1" fill-rule="nonzero"/></g><path fill="#7d6b91" d="M 222.753906 434.039062 L 252.582031 171.269531 L 409.933594 178.421875 L 409.933594 220.695312 L 313.269531 218.921875 L 302.972656 285.738281 L 355.769531 291.316406 L 350.363281 328.382812 L 296.425781 328.382812 L 287.617188 386.503906 L 384.910156 393.625 L 381.164062 442.847656 Z M 222.753906 434.039062 " fill-opacity="1" fill-rule="nonzero"/><path fill="#ed4660" d="M 372.957031 434.984375 L 212.230469 426.058594 L 212.371094 424.859375 L 242.316406 161.003906 L 401.839844 168.269531 L 401.839844 212.800781 L 305.003906 211.027344 L 295.050781 275.667969 L 347.816406 281.246094 L 342.125 320.460938 L 288.160156 320.460938 L 279.695312 376.40625 L 376.902344 383.527344 L 372.957031 435.011719 Z M 214.746094 423.914062 L 370.8125 432.582031 L 374.414062 385.644531 L 277.035156 378.523438 L 286.15625 318.171875 L 340.09375 318.171875 L 345.1875 283.25 L 292.394531 277.671875 L 303.003906 208.683594 L 399.496094 210.457031 L 399.496094 170.441406 L 244.289062 163.375 L 214.71875 423.886719 Z M 214.746094 423.914062 " fill-opacity="1" fill-rule="nonzero"/></svg>