<svg xmlns="http://www.w3.org/2000/svg" xmlns:xlink="http://www.w3.org/1999/xlink" width="800" zoomAndPan="magnify" viewBox="0 0 600 599.999999" height="800" preserveAspectRatio="xMidYMid meet" version="1.0"><defs><clipPath id="f244d55f86"><path d="M 120.574219 116.445312 L 479.074219 116.445312 L 479.074219 483.195312 L 120.574219 483.195312 Z M 120.574219 116.445312 " clip-rule="nonzero"/></clipPath><clipPath id="adeb2aa2f2"><path d="M 127 116.445312 L 468 116.445312 L 468 483.195312 L 127 483.195312 Z M 127 116.445312 " clip-rule="nonzero"/></clipPath></defs><g clip-path="url(#f244d55f86)"><path fill="#f2ece0" d="M 479.074219 266.179688 L 404.457031 145.472656 L 296.292969 163.445312 L 243.4375 116.445312 L 135.492188 176.125 L 148.429688 272.808594 L 120.574219 451.195312 L 278.140625 440.804688 L 410.566406 483.191406 L 461.371094 443.546875 Z M 479.074219 266.179688 " fill-opacity="1" fill-rule="evenodd"/></g><g clip-path="url(#adeb2aa2f2)"><path fill="#e8e2d6" d="M 436.769531 197.742188 L 432.074219 190.144531 L 430.726562 190.492188 C 430.25 190.675781 429.765625 190.988281 429.277344 191.171875 C 418.476562 195.175781 420.496094 187.851562 418.332031 199.359375 C 427.996094 199.359375 433.578125 199.257812 436.769531 197.742188 Z M 253.246094 125.175781 L 243.4375 116.445312 L 232.222656 122.644531 C 233.121094 125.21875 234.503906 129.65625 236.625 137.488281 C 242.664062 135.9375 248.453125 131.152344 253.246094 125.175781 Z M 142.496094 228.46875 L 147.109375 262.941406 C 149.273438 262.933594 151.71875 262.84375 154.488281 262.84375 C 153.050781 237.589844 158.542969 247.035156 152.269531 223.882812 C 139.535156 224.195312 146.394531 222.371094 142.496094 228.46875 Z M 141.699219 315.917969 L 140.351562 324.554688 C 141.78125 324.839844 143.488281 324.96875 145.539062 324.96875 C 153.589844 324.96875 146.347656 325.675781 151.71875 322.675781 C 148.125 317.742188 145.925781 316.3125 141.699219 315.917969 Z M 129.824219 391.957031 L 127.167969 408.953125 C 130.796875 406.210938 133.0625 401.773438 132.730469 396.007812 C 132.640625 394.300781 131.457031 392.742188 129.824219 391.957031 Z M 351.601562 464.316406 L 362.839844 467.917969 C 364.601562 465.9375 365.792969 462.617188 367.828125 457.878906 C 372.917969 461.4375 375.015625 464.03125 382.957031 464.753906 C 380.792969 456.761719 377.375 452.195312 373.496094 446.417969 L 354.554688 446.417969 C 355.664062 466.046875 351.929688 453.671875 351.601562 464.316406 Z M 397.785156 479.105469 L 410.566406 483.191406 L 417.699219 477.628906 C 415.359375 476.601562 415.230469 477.039062 411.527344 475.574219 C 406.6875 473.65625 411.410156 475.527344 406.914062 473.601562 C 405.734375 473.089844 406.550781 472.839844 402.292969 471.621094 C 402.292969 471.632812 400.019531 474.859375 397.785156 479.105469 Z M 453.675781 449.554688 L 455.300781 448.289062 C 454.757812 448.425781 454.207031 448.5625 453.628906 448.710938 Z M 466.128906 395.898438 L 467.972656 377.460938 C 465.75 378.640625 464.375 379.890625 457.023438 380.074219 C 458.765625 393.109375 460.378906 383.023438 462.148438 396.109375 C 463.699219 396.070312 465.007812 395.988281 466.128906 395.898438 Z M 443.308594 231.4375 C 447.929688 231.015625 455.546875 230.019531 449.878906 224.203125 C 447.578125 221.847656 446.929688 222.445312 445.148438 224.316406 C 441.675781 227.945312 443.664062 223.242188 443.308594 231.4375 Z M 419.292969 260.382812 L 415.214844 255.34375 C 408.640625 260.953125 411.335938 254.324219 411.132812 264.960938 C 420.484375 264.117188 415.167969 267.472656 419.292969 260.382812 Z M 300.292969 184.292969 C 297.878906 176.308594 297.878906 175.902344 289.242188 175.125 C 291.726562 184.292969 290.308594 184.046875 300.292969 184.292969 Z M 390.15625 222.28125 C 387.742188 214.285156 387.734375 213.890625 379.105469 213.109375 C 381.589844 222.28125 380.160156 222.03125 390.15625 222.28125 Z M 325.222656 183.320312 L 324.699219 174.152344 L 316.28125 174.152344 L 316.796875 183.320312 Z M 230.535156 243.074219 C 231.542969 236.929688 232.398438 238.753906 232.121094 233.90625 C 231.921875 230.367188 225.363281 224.710938 222.429688 230.449219 C 218.449219 238.261719 225.710938 241.835938 230.535156 243.074219 Z M 307.738281 228.597656 C 301.980469 228.523438 307.976562 228.09375 302.941406 230.890625 C 306.773438 243.558594 317.585938 241.113281 317.988281 240.910156 C 320.921875 239.414062 320.519531 236.472656 318.554688 233.832031 C 321.167969 230.742188 322.992188 229.320312 324.324219 220.847656 C 315.109375 221.078125 319.042969 219.976562 312.9375 224.289062 C 309.882812 226.441406 308.523438 227.25 307.738281 228.597656 Z M 341.871094 242.707031 C 333.820312 242.707031 341.066406 242.011719 335.683594 245 C 339.507812 257.671875 350.324219 255.222656 350.71875 255.019531 C 356.753906 251.957031 348.695312 242.707031 341.871094 242.707031 Z M 396.234375 315.78125 C 401.058594 315.78125 398.636719 315.003906 404.523438 313.488281 L 403.742188 299.738281 C 397.335938 299.894531 396.125 300.773438 391.238281 302.027344 C 391.566406 307.777344 391 315.78125 396.234375 315.78125 Z M 335.03125 292.980469 L 347.539062 290.6875 C 344.578125 285.242188 342.230469 282.875 340.441406 276.933594 C 322.808594 278.539062 326.285156 292.980469 335.03125 292.980469 Z M 453.953125 343.425781 L 466.457031 341.132812 C 463.496094 335.6875 461.148438 333.320312 459.359375 327.378906 C 441.730469 328.984375 445.203125 343.425781 453.953125 343.425781 Z M 449.558594 273.496094 C 448.496094 280.042969 450.074219 276.953125 445.738281 280.371094 C 448.238281 285.398438 449.925781 289.386719 450.863281 296.417969 C 459.359375 295.636719 459.617188 295.316406 459.03125 284.957031 C 458.445312 274.597656 458.152344 274.273438 449.558594 273.496094 Z M 366.519531 209.589844 C 374.925781 209.589844 378.246094 210.964844 383.105469 205.003906 C 380.703125 199.386719 379.765625 200.722656 370.746094 194.820312 C 344.585938 177.703125 362.914062 204.21875 366.519531 209.589844 Z M 374.945312 168.515625 C 385.257812 168.515625 373.386719 159.34375 397.582031 159.34375 C 394.847656 138.882812 380.710938 158.171875 365.738281 154.761719 C 366.378906 163.078125 367.445312 168.515625 374.945312 168.515625 Z M 278.285156 292.007812 C 278.535156 280.214844 275.976562 287.679688 282.101562 285.132812 C 282.285156 275.789062 289.582031 266.59375 293.304688 259.925781 C 278.085938 259.925781 283 255.34375 267.777344 255.34375 C 266.878906 261.878906 267.191406 265.308594 269.730469 274.933594 C 271.859375 282.984375 273.425781 288.292969 278.285156 292.007812 Z M 186.433594 221.207031 C 196.621094 213.449219 188.230469 216.484375 194.492188 201.226562 C 195.144531 199.660156 201.03125 197.082031 192.503906 179.957031 C 183.867188 182.175781 182.363281 184.347656 178.421875 191.410156 C 181.777344 202.511719 182.160156 194.058594 185.515625 205.160156 C 177.253906 205.363281 180.546875 204.539062 175.121094 207.453125 C 178.621094 219.035156 180.96875 219.640625 186.433594 221.207031 Z M 256.375 239.167969 L 256.894531 248.335938 C 262.855469 244.789062 269.226562 242.84375 256.375 239.167969 Z M 209.96875 163.554688 C 215.628906 163.03125 215.636719 162.472656 220.367188 161.261719 C 215.507812 154.605469 220.414062 156.933594 209.574219 156.675781 Z M 236.402344 184.175781 L 240.804688 180.046875 C 235.210938 172.546875 241.5 175.894531 231.671875 175.003906 C 232.386719 180.398438 231.921875 183.347656 236.402344 184.175781 Z M 377.988281 414.335938 L 377.464844 405.167969 L 371.148438 405.167969 L 371.671875 414.335938 Z M 402.707031 441.832031 C 401.753906 438.394531 401.855469 434.957031 398.105469 434.957031 C 392.28125 434.957031 393.144531 436.726562 392.179688 441.832031 Z M 305.222656 172.714844 L 304.832031 165.835938 L 294.304688 165.835938 L 294.570312 170.421875 C 299.4375 171.640625 299.511719 172.191406 305.222656 172.714844 Z M 189.210938 352.464844 C 197.253906 352.464844 190.007812 353.171875 195.390625 350.171875 C 191.355469 344.167969 194.0625 345.441406 186.582031 343.296875 C 185.453125 349.367188 186.855469 345.1875 184.867188 350.171875 C 184.910156 350.210938 188.925781 352.464844 189.210938 352.464844 Z M 239.382812 356.050781 C 240.234375 362.351562 239.859375 361.03125 242.003906 365.21875 C 247.25 361.230469 247.488281 362.890625 247.671875 353.757812 L 239.382812 356.050781 C 235.714844 350.59375 236.695312 353.667969 234.652344 346.882812 L 228.335938 346.882812 C 228.589844 350.203125 227.4375 362.238281 239.382812 356.050781 Z M 276.949219 156.675781 C 271.804688 149.636719 278.09375 152.972656 268.265625 152.09375 L 268.789062 161.261719 C 278.140625 160.410156 272.820312 163.765625 276.949219 156.675781 Z M 288.675781 362.910156 C 285.558594 363.734375 282.386719 363.414062 282.625 367.492188 C 282.871094 371.914062 284.464844 375.214844 288.472656 373.65625 C 292.40625 372.113281 289.527344 369.316406 288.675781 362.910156 Z M 299.84375 234.601562 L 295.632812 234.601562 L 296.542969 250.636719 C 303.234375 245.046875 302.328125 243.761719 299.84375 234.601562 Z M 320.765625 340.933594 C 319.914062 334.640625 320.28125 335.953125 318.132812 331.773438 L 309.71875 331.773438 L 310.238281 340.933594 Z M 247.890625 347.882812 C 247.175781 342.492188 245.34375 336.421875 240.921875 336.421875 C 232.875 336.421875 240.117188 335.722656 234.742188 338.710938 C 238.796875 346.183594 237.898438 346.984375 247.890625 347.882812 Z M 411.929688 418.921875 C 406.199219 417.453125 407.832031 416.628906 403.375 416.628906 C 397.554688 416.628906 398.417969 418.398438 397.453125 423.503906 C 408.171875 424.46875 409.667969 430.96875 411.929688 418.921875 Z M 402.167969 469.332031 C 401.78125 464.277344 402.15625 457.878906 397.308594 457.878906 L 393.097656 457.878906 C 390.761719 463.957031 391.308594 460.328125 391.640625 469.332031 Z M 357.714844 428.089844 C 365.746094 425.714844 365.746094 424.992188 365.355469 414.335938 C 360.722656 414.445312 354.792969 413.640625 355.09375 418.921875 C 355.121094 419.5 357.414062 427.355469 357.714844 428.089844 Z M 173.101562 439.542969 C 180.886719 434.910156 176.402344 439.203125 179.511719 433.160156 L 181.328125 428.546875 C 182.125 426.210938 181.554688 429.667969 182.71875 423.503906 C 175.796875 419.644531 161.769531 412.492188 169.507812 426.3125 C 171.753906 430.328125 170.847656 427.519531 171.679688 431.847656 C 172.515625 436.167969 169.820312 432.730469 173.101562 439.542969 Z M 195.226562 421.210938 C 196.648438 412.457031 200.976562 405.167969 181.675781 405.167969 L 182.464844 418.921875 C 188.882812 419.078125 190.191406 419.957031 195.226562 421.210938 Z M 381.785156 444.125 L 385.296875 434.332031 C 387.726562 427.886719 387.660156 436.378906 387.320312 430.382812 C 386.449219 415.0625 370.46875 430.1875 370.605469 432.671875 C 371.039062 440.136719 377.089844 441.503906 381.785156 444.125 Z M 270.152344 378.964844 C 269.886719 374.222656 268.886719 374.316406 266.441406 371.070312 C 262.378906 365.6875 264.808594 368.539062 258.847656 365.21875 C 255.089844 371.949219 254.898438 369.777344 255.546875 381.253906 L 249.238281 381.253906 L 249.625 388.132812 C 265.074219 391.992188 270.21875 379.992188 270.152344 378.964844 Z M 428.753906 455.585938 C 425.226562 446.535156 422.28125 452.898438 421.394531 437.257812 C 416.324219 437.714844 414.691406 437.148438 412.644531 441.210938 C 411.1875 444.105469 411.8125 441.988281 412.617188 445.0625 L 415.863281 451.003906 C 402.863281 454.84375 406.265625 466.917969 417.3125 463.746094 C 424.289062 461.738281 423.851562 459.316406 428.753906 455.585938 Z M 338.976562 367.511719 C 347.109375 367.511719 350.785156 347.351562 341.230469 333.136719 C 334.199219 339.015625 339.808594 331.570312 336.417969 341.140625 C 333.5 349.367188 332.050781 367.511719 338.976562 367.511719 Z M 343.898438 400.574219 C 340.238281 391.167969 340.871094 396.035156 322.324219 391.40625 C 315.492188 403.644531 307.414062 404.753906 303.382812 391.40625 C 294.652344 392.195312 299.4375 391.324219 295.09375 395.851562 L 287.191406 402.855469 C 302.566406 402.855469 333.371094 406.230469 343.898438 400.574219 Z M 146.953125 386.839844 C 150.886719 379.796875 153.308594 379.722656 156.691406 370.832031 C 157.011719 369.976562 159.347656 362.394531 159.332031 360.570312 C 159.238281 348.699219 150.042969 359.828125 142.203125 369.023438 C 137.644531 374.378906 133.695312 378.980469 132.21875 386.839844 Z M 198.773438 298.515625 C 198.140625 287.339844 196.308594 288.082031 201.535156 281.929688 L 214.179688 273.3125 C 213.546875 265.03125 213.949219 268.882812 211.933594 263.714844 C 205.054688 246.027344 203.882812 243.320312 195.519531 241.230469 C 188.503906 259.476562 199.085938 259.871094 180.375 271.019531 C 184.839844 279.996094 181.601562 279.566406 181.410156 289.347656 C 188.789062 294.511719 187.507812 297.5 198.773438 298.515625 Z M 198.773438 298.515625 " fill-opacity="1" fill-rule="evenodd"/></g><path fill="#bf6463" d="M 333.132812 399.007812 L 349.078125 251.226562 C 350.171875 241.09375 350.546875 227.265625 345.394531 218.0625 C 341.40625 210.929688 335.140625 208.140625 327.101562 208.140625 C 320.140625 208.140625 313.484375 211.339844 307.875 215.210938 C 299.933594 220.675781 292.800781 227.394531 286.402344 234.574219 C 279.40625 242.433594 272.859375 250.683594 266.851562 259.332031 C 261.847656 266.535156 257.035156 274.027344 252.90625 281.792969 L 240.253906 399.171875 L 263.367188 403.617188 L 262.09375 415.453125 L 143.871094 415.453125 L 145.175781 403.445312 L 169.699219 398.996094 L 190.375 207.253906 L 164.546875 207.253906 L 165.886719 194.792969 L 264.175781 177.289062 L 256.566406 247.90625 C 263.917969 236.527344 272.132812 225.679688 281.347656 215.742188 C 291.589844 204.695312 303.328125 195.167969 316.730469 188.199219 C 329.621094 181.496094 343.414062 178.179688 357.953125 178.179688 C 368.644531 178.179688 380.042969 179.542969 389.816406 184.128906 C 398.160156 188.035156 404.960938 193.820312 409.683594 201.75 C 414.488281 209.828125 417.15625 218.921875 418.441406 228.191406 C 419.945312 239.03125 419.761719 250.132812 418.585938 261 L 403.699219 399.105469 L 429.050781 403.5625 L 427.765625 415.453125 L 307.765625 415.453125 L 309.058594 403.453125 Z M 333.132812 399.007812 " fill-opacity="1" fill-rule="evenodd"/><path fill="#b05f5d" d="M 333.132812 399.007812 L 333.722656 393.558594 C 340.84375 394.441406 341.25 393.742188 343.898438 400.574219 C 337.316406 404.121094 322.765625 404.121094 309.039062 403.628906 L 309.058594 403.453125 Z M 336.628906 366.605469 L 340.148438 334.019531 C 340.46875 333.761719 340.828125 333.476562 341.230469 333.136719 C 350.785156 347.351562 347.109375 367.511719 338.976562 367.511719 C 338.050781 367.511719 337.277344 367.183594 336.628906 366.605469 Z M 344.761719 291.191406 L 345.238281 286.761719 C 345.960938 287.9375 346.722656 289.191406 347.539062 290.6875 Z M 348.628906 255.324219 L 349.078125 251.226562 C 349.253906 249.574219 349.410156 247.832031 349.527344 246.035156 C 352.847656 248.996094 354.398438 253.152344 350.71875 255.019531 C 350.621094 255.074219 349.820312 255.277344 348.628906 255.324219 Z M 269.660156 255.371094 C 268.90625 256.40625 268.164062 257.449219 267.421875 258.503906 C 267.503906 257.515625 267.625 256.46875 267.777344 255.34375 C 268.449219 255.34375 269.070312 255.351562 269.660156 255.371094 Z M 246.453125 341.65625 L 245.800781 347.679688 C 238.007812 346.828125 238.496094 345.625 234.742188 338.710938 C 240.117188 335.722656 232.875 336.421875 240.925781 336.421875 C 243.621094 336.421875 245.34375 338.675781 246.453125 341.65625 Z M 245.066406 354.484375 L 244.070312 363.734375 C 243.492188 364.136719 242.804688 364.613281 242.003906 365.21875 C 239.859375 361.03125 240.234375 362.351562 239.382812 356.050781 C 227.4375 362.238281 228.59375 350.203125 228.335938 346.882812 L 234.652344 346.882812 C 236.695312 353.667969 235.714844 350.59375 239.382812 356.050781 Z M 196.34375 415.453125 L 182.261719 415.453125 L 181.675781 405.167969 C 196.519531 405.167969 197.390625 409.476562 196.34375 415.453125 Z M 181.519531 289.421875 L 182.371094 281.464844 C 182.59375 280.34375 182.746094 279.371094 182.710938 278.292969 L 183.730469 268.929688 C 197.746094 259.742188 188.972656 258.265625 195.519531 241.230469 C 203.882812 243.320312 205.054688 246.027344 211.933594 263.714844 C 213.949219 268.882812 213.546875 265.03125 214.179688 273.3125 L 201.535156 281.929688 C 196.308594 288.082031 198.140625 287.339844 198.773438 298.515625 C 187.5625 297.507812 188.773438 294.546875 181.519531 289.421875 Z M 189.101562 219.050781 L 190.375 207.253906 L 175.484375 207.253906 C 180.390625 204.574219 177.449219 205.355469 185.515625 205.160156 C 182.28125 194.445312 181.804688 201.945312 178.757812 192.5 L 196.273438 189.382812 C 198.664062 198.183594 194.996094 200.007812 194.492188 201.226562 C 188.898438 214.851562 194.988281 213.890625 189.101562 219.050781 Z M 233.460938 182.753906 L 238.960938 181.78125 L 236.402344 184.175781 C 235 183.917969 234.074219 183.449219 233.460938 182.753906 Z M 257.472656 239.5 L 256.765625 246.035156 L 256.375 239.167969 C 256.757812 239.277344 257.117188 239.386719 257.472656 239.5 Z M 256.851562 247.464844 C 258.289062 245.246094 259.765625 243.046875 261.269531 240.875 C 267.121094 243.53125 261.867188 245.375 256.894531 248.335938 Z M 418.726562 259.6875 C 418.679688 260.117188 418.644531 260.558594 418.585938 261 L 418.503906 261.824219 C 415.890625 266.984375 419.769531 264.179688 411.132812 264.960938 C 411.335938 254.324219 408.640625 260.953125 415.214844 255.34375 Z M 365.398438 415.453125 L 356.523438 415.453125 C 358.523438 414.070312 362.234375 414.410156 365.355469 414.335938 Z M 390.15625 222.28125 C 387.742188 214.285156 387.734375 213.890625 379.105469 213.109375 C 381.589844 222.28125 380.160156 222.03125 390.15625 222.28125 Z M 230.535156 243.074219 C 231.542969 236.929688 232.398438 238.753906 232.121094 233.90625 C 231.921875 230.367188 225.363281 224.710938 222.429688 230.449219 C 218.453125 238.261719 225.714844 241.835938 230.535156 243.074219 Z M 396.234375 315.78125 C 401.058594 315.78125 398.636719 315.003906 404.523438 313.488281 L 403.742188 299.738281 C 397.335938 299.894531 396.125 300.773438 391.238281 302.027344 C 391.566406 307.777344 391 315.78125 396.234375 315.78125 Z M 366.519531 209.589844 C 374.925781 209.589844 378.246094 210.964844 383.105469 205.003906 C 380.703125 199.386719 379.765625 200.722656 370.746094 194.820312 C 344.585938 177.703125 362.914062 204.21875 366.519531 209.589844 Z M 377.988281 414.335938 L 377.464844 405.167969 L 371.148438 405.167969 L 371.671875 414.335938 Z M 189.210938 352.464844 C 197.253906 352.464844 190.007812 353.171875 195.390625 350.171875 C 191.355469 344.167969 194.0625 345.441406 186.582031 343.296875 C 185.453125 349.367188 186.855469 345.1875 184.867188 350.171875 C 184.910156 350.210938 188.925781 352.464844 189.210938 352.464844 Z M 189.210938 352.464844 " fill-opacity="1" fill-rule="evenodd"/></svg>